<svg width="75" height="75" viewBox="0 0 75 75" fill="none" xmlns="http://www.w3.org/2000/svg">
<path d="M62.5488 0H12.4512C5.57458 0 0 5.70837 0 12.75V62.13C0 69.1716 5.57458 74.88 12.4512 74.88H62.5488C69.4254 74.88 75 69.1716 75 62.13V12.75C75 5.70837 69.4254 0 62.5488 0Z" fill="#390000"/>
<path d="M36.3449 44.937H24.7228L22.358 52.4589C22.3258 52.5961 22.2479 52.7175 22.1376 52.8022C22.0274 52.8869 21.8918 52.9295 21.7541 52.9227H15.8675C15.5321 52.9227 15.4146 52.7337 15.5154 52.3557L25.578 22.6803C25.6785 22.3713 25.7792 22.0194 25.8797 21.6243C26.0116 20.9367 26.0789 20.2383 26.081 19.5378C26.0741 19.4888 26.0785 19.4389 26.0938 19.3919C26.1091 19.3449 26.1348 19.3022 26.169 19.2672C26.2031 19.2322 26.2448 19.2058 26.2907 19.1902C26.3365 19.1745 26.3853 19.1699 26.4331 19.1769H34.433C34.6673 19.1769 34.8015 19.263 34.8355 19.4349L46.2563 52.4073C46.3571 52.7511 46.2563 52.923 45.9545 52.9227H39.4137C39.3014 52.9355 39.1884 52.9059 39.0958 52.8395C39.0032 52.7732 38.9374 52.6746 38.9107 52.5621L36.3449 44.937V44.937ZM26.5339 38.4456H34.4833L34.37 38.0625L34.188 37.4559L34.0582 37.0299L33.8511 36.3591L33.4108 34.947L33.0235 33.6951L32.0177 30.4341C31.7674 29.6235 31.5271 28.8096 31.297 27.9927L31.113 27.3297L30.898 26.5458L30.5699 25.3308L30.5083 25.1019H30.4582C30.2065 26.3386 29.8999 27.5628 29.5395 28.7709L28.793 31.2297L28.3823 32.5881L27.9677 33.9633C27.8927 34.2117 27.8183 34.4574 27.7436 34.7001L27.5209 35.4195L27.2995 36.1221L27.0791 36.8073L26.86 37.4754C26.7873 37.6953 26.7147 37.9122 26.6423 38.1264L26.5339 38.4456V38.4456ZM53.0479 24.6381C52.5348 24.6592 52.023 24.5692 51.5462 24.3739C51.0694 24.1785 50.6382 23.8824 50.2808 23.5047C49.9244 23.1107 49.6475 22.6484 49.4662 22.1444C49.2848 21.6404 49.2026 21.1047 49.2241 20.568C49.2058 20.0367 49.2972 19.5075 49.4923 19.0149C49.6873 18.5222 49.9817 18.0773 50.3561 17.709C51.0783 16.9991 52.0401 16.6018 53.0412 16.5999L53.1484 16.6011C54.356 16.6011 55.3038 16.9701 55.9914 17.7087C56.3384 18.0925 56.6081 18.5426 56.7851 19.0332C56.962 19.5238 57.0427 20.0454 57.0226 20.568C57.0437 21.1068 56.9588 21.6444 56.773 22.149C56.5872 22.6535 56.3042 23.1147 55.941 23.505C55.5742 23.8752 55.1388 24.1665 54.6604 24.3618C54.182 24.5571 53.6703 24.6523 53.1554 24.642L53.0479 24.6381V24.6381ZM49.5762 52.4073V27.7809C49.5762 27.4719 49.7098 27.3171 49.9788 27.3171H56.1674C56.4355 27.3171 56.5697 27.4716 56.57 27.7809V52.4073C56.57 52.7511 56.4358 52.923 56.1674 52.9227H50.0291C49.7432 52.9227 49.5926 52.7685 49.5777 52.4601L49.5762 52.4073Z" fill="#FF9A00"/>
</svg>
