<svg width="75" height="75" viewBox="0 0 75 75" fill="none" xmlns="http://www.w3.org/2000/svg">
<path d="M62.5488 0H12.4512C5.57458 0 0 5.70837 0 12.75V62.13C0 69.1716 5.57458 74.88 12.4512 74.88H62.5488C69.4254 74.88 75 69.1716 75 62.13V12.75C75 5.70837 69.4254 0 62.5488 0Z" fill="#001631"/>
<path d="M16.8867 52.5105V19.5891C16.8867 19.3491 16.9875 19.2285 17.1888 19.2285L17.5072 19.2276L18.0516 19.2216L18.808 19.2063L21.3422 19.1514L24.0595 19.0998C25.0151 19.083 25.9626 19.074 26.9019 19.074C29.4507 19.074 31.5973 19.4004 33.3419 20.0529C34.9156 20.598 36.3508 21.4955 37.5431 22.6803C38.5537 23.7073 39.3348 24.9466 39.8323 26.3127C40.303 27.642 40.5415 29.0459 40.5369 30.4599C40.5369 33.2082 39.9161 35.475 38.6751 37.2606C37.4613 39.0026 35.7682 40.3348 33.8118 41.0874L33.6439 41.1504C31.6011 41.9307 29.3388 42.2127 26.8576 42.2304L26.4721 42.2316L25.8999 42.2286L25.6113 42.2244L25.2896 42.2166L25.0957 42.2088L24.9779 42.2025L24.6882 42.1917L24.334 42.1842L23.8008 42.1803L23.6821 42.18V52.4589C23.6909 52.5219 23.6853 52.5861 23.6657 52.6465C23.646 52.7069 23.6129 52.7618 23.569 52.8068C23.525 52.8518 23.4714 52.8857 23.4124 52.9058C23.3535 52.9259 23.2907 52.9317 23.2292 52.9227H17.2392C17.0039 52.9227 16.8867 52.7859 16.8867 52.5105V52.5105ZM23.6824 25.4109V36.1485C24.084 36.1817 24.4866 36.1989 24.8895 36.2001H26.55C27.6948 36.1961 28.833 36.0216 29.9288 35.682L30.1474 35.6121C31.1442 35.3089 32.035 34.7186 32.7135 33.9117C33.3439 33.1503 33.6706 32.1012 33.6932 30.7641L33.6946 30.6144C33.721 29.6178 33.4679 28.6344 32.9648 27.7809C32.4362 26.9554 31.672 26.3168 30.7764 25.9518C29.6068 25.4863 28.3576 25.2673 27.1034 25.308L26.4653 25.3098L26.0628 25.3134L25.6787 25.3185L25.1367 25.3293L24.7412 25.3407L24.5358 25.3485L24.2613 25.3617L24.0275 25.3764L23.8942 25.3872L23.7791 25.3986L23.7284 25.4046L23.6824 25.4109V25.4109ZM59.99 34.1961C59.1124 33.7342 58.1814 33.3873 57.2191 33.1635L56.9965 33.1143C55.9379 32.8655 54.8571 32.7285 53.7712 32.7054L53.4999 32.7021C52.8633 32.6844 52.2276 32.7625 51.6132 32.934C51.222 33.023 50.8743 33.2511 50.6317 33.5778C50.4678 33.8391 50.3805 34.1432 50.3804 34.4538C50.3896 34.755 50.4956 35.0447 50.6821 35.2779C50.9491 35.5977 51.2702 35.8656 51.6299 36.069L51.7389 36.1281C52.4562 36.5236 53.1953 36.8762 53.9525 37.1841C55.6411 37.7629 57.2545 38.5501 58.7572 39.5283C59.7811 40.1899 60.6284 41.1018 61.2229 42.1818C61.7226 43.2043 61.973 44.3356 61.9523 45.4788C61.9825 46.9886 61.5611 48.4718 60.7447 49.7295C59.8708 51.006 58.657 51.9984 57.2479 52.5885C55.7722 53.2527 53.9599 53.5956 51.8112 53.6181L51.588 53.6193C50.256 53.6331 48.9259 53.5137 47.6165 53.2629L47.3364 53.2071C46.234 53 45.1609 52.6539 44.1416 52.1766C44.0392 52.1224 43.9526 52.0414 43.8907 51.9418C43.8289 51.8422 43.7939 51.7275 43.7895 51.6096V45.9942C43.7834 45.9397 43.792 45.8845 43.8141 45.8346C43.8363 45.7847 43.8713 45.7418 43.9154 45.7107C43.9586 45.6857 44.0082 45.6748 44.0576 45.6794C44.1071 45.684 44.1539 45.7039 44.192 45.7365C45.3957 46.4633 46.7027 46.9935 48.0659 47.3079C49.2676 47.6163 50.5002 47.7807 51.7389 47.7975C52.9125 47.7975 53.7762 47.6427 54.3299 47.3337C54.5799 47.2165 54.7914 47.0276 54.9388 46.7898C55.0861 46.5521 55.163 46.2757 55.1602 45.9942C55.1602 45.5484 54.9085 45.1188 54.4055 44.7063C54.1945 44.5335 53.8919 44.3454 53.4981 44.1423L53.3098 44.0475L53.1088 43.9506L53.0033 43.9014L52.7824 43.8012C52.7441 43.784 52.7057 43.767 52.6673 43.7502L52.4271 43.647L52.302 43.5945L52.0424 43.488L51.9076 43.434L51.6284 43.3239L51.3363 43.212C49.7565 42.6489 48.2586 41.869 46.8835 40.8936C45.9001 40.1932 45.0903 39.2669 44.5189 38.1888C44.0242 37.1736 43.774 36.0518 43.7895 34.9173C43.7866 33.5541 44.1523 32.2168 44.8459 31.0533C45.6369 29.7723 46.7725 28.7523 48.1163 28.1169C49.592 27.3618 51.4365 26.9838 53.6505 26.9832C54.9472 26.9725 56.2427 27.0673 57.5247 27.2667C58.453 27.3872 59.3607 27.6386 60.2218 28.0137C60.3604 28.0545 60.472 28.1592 60.5235 28.2972C60.5578 28.4229 60.5745 28.5528 60.5739 28.6836V33.8871C60.5813 34.0101 60.5235 34.128 60.423 34.1961C60.3558 34.2303 60.2817 34.2481 60.2065 34.2481C60.1314 34.2481 60.0573 34.2303 59.99 34.1961V34.1961Z" fill="#31A8FF"/>
</svg>
